<svg width="60" height="140" viewBox="0 0 60 140" fill="none" xmlns="http://www.w3.org/2000/svg">
<g clip-path="url(#clip0_91_2835)">
<path d="M49.2848 6.1192C49.2848 6.44371 49.1225 6.79138 49.053 6.99999C48.9734 7.27258 48.9191 7.5519 48.8907 7.83443V8.69205C48.9343 9.27584 49.1524 9.83305 49.5165 10.2914C50.1192 11.2649 52.2516 14.7881 53.2947 16.5497C53.4232 16.7307 53.532 16.9249 53.6192 17.1291V128.387L48.2881 133.788H11.8278L6.38078 128.364V17.106C6.44929 16.872 6.55919 16.6522 6.70528 16.4569C7.72515 14.7417 9.8576 11.2185 10.5066 10.1755C10.8475 9.73447 11.0492 9.20187 11.0861 8.64568V7.78808C11.0698 7.51145 11.0152 7.23842 10.9238 6.97683L10.7152 6.07285H49.2848M50.1424 5.19205H9.8576C9.48674 5.19205 10.2285 7.50993 10.2285 7.78808V8.64568C10.1545 9.0579 9.9703 9.44238 9.69535 9.75827C9.11588 10.6854 6.96026 14.2318 5.91721 15.9934C5.67128 16.3081 5.51868 16.6856 5.47681 17.0828V128.781L11.4569 134.692H48.543L54.4073 128.781V17.1291C54.3283 16.7455 54.1704 16.3824 53.9437 16.0629C52.9006 14.3013 50.745 10.755 50.1424 9.82781C49.8943 9.49451 49.7348 9.10375 49.6788 8.69205V7.83443C49.6788 7.60264 50.4205 5.23841 50.0497 5.23841" fill="white"/>
<path d="M6.05627 128.851L54.3609 128.666L54.3377 17.9636H6.05627V128.851Z" fill="white"/>
<path d="M43.1767 102.168L16.5906 102.224L16.6123 112.585L43.1984 112.529L43.1767 102.168Z" fill="#12100B"/>
<path d="M20.01 105.116H19.0596V104.281H21.9106V105.116H20.9371V110.099H20.01V105.116Z" fill="white"/>
<path d="M22.351 104.281H24.8775V105.116H23.2782V106.646H24.5298V107.48H23.2782V109.265H24.8775V110.099H22.351V104.281Z" fill="white"/>
<path d="M25.3874 104.281H26.5463L27.4503 107.758H27.4735V104.281H28.2847V110.099H27.3576L26.245 105.858H26.2218V110.099H25.3874V104.281Z" fill="white"/>
<path d="M30.3245 104.281H31.6457L32.2252 108.454H32.2484L32.8278 104.281H34.149V110.099H33.2682V105.695L32.596 110.099H31.8311L31.1358 105.695V110.099H30.3245V104.281Z" fill="white"/>
<path d="M34.8444 104.281H37.3709V105.116H35.7715V106.646H37.0463V107.48H35.7715V109.265H37.3709V110.099H34.8444V104.281Z" fill="white"/>
<path d="M37.8808 104.281H39.0397L39.9437 107.758H39.9669V104.281H40.7781V110.099H39.8278L38.7384 105.858H38.7152V110.099H37.8808V104.281Z" fill="white"/>
<path d="M53.1788 54.7947L37.7186 39.4735L30 47.1225L22.2583 39.4735L6.79803 54.7947L14.5398 62.4669L6.79803 70.1391L22.2583 85.4834L30 77.8113L37.7186 85.4834L53.1788 70.1391L45.4603 62.4669L53.1788 54.7947Z" fill="#1D1D1B"/>
</g>
<defs>
<clipPath id="clip0_91_2835">
<rect width="49" height="129.523" fill="white" transform="translate(5.5 5.2384)"/>
</clipPath>
</defs>
</svg>
