<svg width="30" height="30" viewBox="0 0 30 30" fill="none" xmlns="http://www.w3.org/2000/svg">
<path d="M16.5478 17.3548V20.7266H13.4443V17.3548C13.9396 17.489 14.4593 17.5622 14.9961 17.5622C15.5328 17.5622 16.0525 17.489 16.5478 17.3548Z" fill="white"/>
<path d="M16.1821 17.3549V20.3047V20.7268L16.548 20.3608H13.8276H13.4421C13.5641 20.4828 13.6861 20.6048 13.8081 20.7268V17.777V17.3549C13.6544 17.4721 13.4983 17.5892 13.3445 17.7087C14.4229 17.9966 15.5648 17.9966 16.6432 17.7087C16.8335 17.6575 16.9506 17.4477 16.8994 17.2574C16.8457 17.0646 16.6407 16.9499 16.448 17.0012C15.494 17.2574 14.4913 17.2574 13.5373 17.0012C13.308 16.9402 13.0737 17.1159 13.0737 17.355V20.3047V20.7268C13.0737 20.9244 13.2421 21.0928 13.4397 21.0928H16.1601H16.5456C16.7432 21.0928 16.9116 20.9244 16.9116 20.7268V17.777V17.355C16.9116 17.1647 16.7432 16.9792 16.5456 16.989C16.3504 16.9963 16.1821 17.15 16.1821 17.3549Z" fill="white"/>
<path d="M19.9125 24.6573H10.0801L10.8925 20.8951C10.9145 20.7951 11.0023 20.7243 11.1048 20.7243H18.8904C18.9928 20.7243 19.0807 20.7951 19.1026 20.8951L19.9125 24.6573Z" fill="white"/>
<path d="M19.9131 24.291H18.9371H16.5925H13.7549H11.298C10.9003 24.291 10.4953 24.269 10.0977 24.291H10.0806C10.1977 24.4447 10.3148 24.6009 10.4344 24.7546C10.6759 23.6396 10.915 22.5246 11.1566 21.4096C11.1785 21.312 11.198 21.2168 11.22 21.1192C11.2224 21.107 11.2566 21.0046 11.2468 20.9948C11.2712 21.0192 11.1273 21.1022 11.1078 21.0924C11.1126 21.0948 11.1273 21.0924 11.1346 21.0924C11.1785 21.0948 11.2224 21.0924 11.2664 21.0924H12.5912H16.9291H18.5224C18.637 21.0924 18.7517 21.0973 18.8664 21.0924C18.8737 21.0924 18.8834 21.0948 18.8883 21.0924C18.8615 21.0997 18.7273 21.0168 18.7493 20.9972C18.7395 21.0046 18.7737 21.1144 18.7761 21.1266C19.0298 22.3025 19.2836 23.481 19.5373 24.657C19.5446 24.6911 19.5519 24.7229 19.5593 24.757C19.6007 24.9498 19.8276 25.062 20.0106 25.0132C20.2107 24.9595 20.3083 24.757 20.2668 24.5618C20.0228 23.4273 19.7764 22.2904 19.5324 21.1558C19.4982 20.9948 19.4812 20.7972 19.3958 20.6508C19.2567 20.4093 19.0103 20.3605 18.759 20.3605H17.4439H13.023H11.4395C11.3322 20.3605 11.2248 20.358 11.1175 20.3605C10.7905 20.3702 10.5831 20.5898 10.5197 20.8899C10.2635 22.0806 10.0049 23.2712 9.74875 24.4594C9.74143 24.4935 9.73411 24.5252 9.72679 24.5594C9.67799 24.7887 9.8317 25.023 10.0806 25.023H11.0565H13.4012H16.2387H18.6956C19.0957 25.023 19.4959 25.0352 19.896 25.023H19.9131C20.1034 25.023 20.2888 24.8546 20.279 24.657C20.2693 24.4594 20.118 24.291 19.9131 24.291Z" fill="white"/>
<path d="M20.8932 5.61183V11.6624C20.8932 12.6139 20.6687 13.5117 20.2686 14.3071C19.5244 15.7881 18.1777 16.9104 16.5479 17.3545C16.0526 17.4887 15.5329 17.5619 14.9962 17.5619C14.4594 17.5619 13.9397 17.4911 13.4445 17.3545C12.4393 17.0812 11.5414 16.5493 10.8265 15.832C10.3825 15.388 10.0092 14.8732 9.72372 14.3047C9.32358 13.5093 9.09912 12.6115 9.09912 11.66V5.60942C9.09912 5.45815 9.22111 5.33616 9.37238 5.33616H20.6249C20.7713 5.3386 20.8933 5.4606 20.8933 5.61186L20.8932 5.61183Z" fill="white"/>
<path d="M20.5275 5.61189V8.62507C20.5275 9.63758 20.5299 10.6501 20.5275 11.6626C20.5251 12.863 20.1444 14.0122 19.4198 14.9881C19.4198 14.9881 19.3466 15.0833 19.3881 15.0296C19.3661 15.0589 19.3442 15.0857 19.3198 15.115C19.2808 15.1614 19.2442 15.2077 19.2027 15.2541C19.1051 15.3687 19.0026 15.4785 18.8953 15.5859C18.7977 15.6835 18.6952 15.7786 18.5903 15.8689C18.5439 15.9079 18.4976 15.947 18.4512 15.986C18.3658 16.0543 18.3853 16.0421 18.2951 16.1056C17.8462 16.4349 17.3411 16.7033 16.8726 16.8717C15.6308 17.3133 14.2913 17.306 13.0519 16.8497C12.5419 16.6618 11.9442 16.3227 11.527 15.9787C11.0366 15.5786 10.6316 15.1224 10.3046 14.6026C9.74103 13.6999 9.46291 12.6825 9.46045 11.6236V10.3964V6.29751V5.7339C9.46045 5.70462 9.47021 5.65095 9.46045 5.62411V5.61679C9.47997 5.64363 9.4019 5.7095 9.45313 5.65339C9.43605 5.67047 9.37018 5.71438 9.43117 5.68511C9.42385 5.68755 9.37994 5.71926 9.3653 5.70706H9.36774C9.40433 5.72658 9.51169 5.70706 9.55316 5.70706H10.0021H13.5179H17.8852H20.5226C20.547 5.70706 20.5763 5.71194 20.6007 5.70706C20.6031 5.70706 20.6129 5.7095 20.6153 5.70706C20.6031 5.71682 20.5641 5.68999 20.5519 5.68511C20.6129 5.71194 20.547 5.67047 20.5299 5.65339C20.5787 5.69487 20.5299 5.64605 20.5275 5.61189C20.5397 5.8022 20.6885 5.98764 20.8934 5.97788C21.0813 5.97056 21.2716 5.81685 21.2594 5.61191C21.2375 5.22398 20.9447 4.97268 20.5665 4.97268H20.2518H18.9172H14.6524H10.595H9.51657C9.46777 4.97268 9.41654 4.97024 9.36774 4.97268C9.01153 4.98488 8.74315 5.25814 8.72852 5.61191V5.70706V9.39364V11.2406C8.72852 11.9091 8.75779 12.5678 8.9237 13.2193C9.25552 14.5173 10.0192 15.7079 11.0683 16.5399C12.1613 17.406 13.5008 17.9013 14.8988 17.9233C16.2017 17.9428 17.5094 17.5475 18.5756 16.7961C19.5881 16.0812 20.364 15.0955 20.8251 13.9439C21.1447 13.1461 21.257 12.3019 21.257 11.448V9.81087V5.86326V5.60952C21.257 5.41921 21.0886 5.23378 20.891 5.24354C20.6958 5.2533 20.5275 5.40701 20.5275 5.61196L20.5275 5.61189Z" fill="white"/>
<path d="M9.7238 13.817H8.44534C8.34775 13.817 8.25016 13.817 8.15256 13.8097C8.10865 13.8073 8.06229 13.8048 8.01837 13.7999C7.99154 13.7975 7.96226 13.7951 7.93542 13.7926C7.88906 13.7877 7.88418 13.8097 7.9647 13.7975C7.88174 13.8097 7.75243 13.7633 7.66948 13.7438C7.47673 13.7023 7.28887 13.6438 7.10587 13.573C7.08635 13.5657 7.06683 13.556 7.04487 13.5486C6.95948 13.5145 7.06683 13.5608 7.07171 13.5608C7.04975 13.5657 6.96192 13.512 6.93996 13.4998C6.84725 13.4559 6.75697 13.4071 6.66914 13.3559C6.59107 13.3095 6.51299 13.2607 6.4398 13.2095C6.40076 13.1827 6.36173 13.1558 6.32269 13.1265C6.31049 13.1192 6.27633 13.0973 6.27146 13.0875C6.28853 13.0997 6.30317 13.1119 6.32025 13.1241C6.30318 13.1119 6.2861 13.0973 6.27146 13.0851C6.1275 12.968 5.99087 12.8387 5.86401 12.702C5.80301 12.6361 5.74445 12.5654 5.68834 12.4971C5.63222 12.4288 5.70054 12.5166 5.70542 12.5215C5.69566 12.5166 5.67614 12.4824 5.66638 12.4702C5.63466 12.4263 5.60294 12.3848 5.57367 12.3385C5.46632 12.1775 5.37116 12.0116 5.28821 11.8359C5.27845 11.8163 5.26869 11.7968 5.26137 11.7773C5.25649 11.7676 5.20526 11.6773 5.24673 11.7456C5.28089 11.8066 5.24673 11.748 5.23941 11.7285C5.22966 11.7041 5.2199 11.6773 5.21014 11.6529C5.17598 11.5602 5.14426 11.4675 5.11742 11.3747C5.09059 11.2845 5.06863 11.1942 5.04911 11.1039L5.01983 10.9575C5.01495 10.9356 5.01251 10.9136 5.01007 10.8917C5.00763 10.8746 5.0052 10.8575 5.00276 10.8429C4.99788 10.8063 5.00032 10.8209 5.01007 10.8892C4.99056 10.8673 4.99788 10.7843 4.99544 10.755C4.99056 10.7038 4.98812 10.6526 4.98568 10.6038C4.98324 10.5403 4.9808 10.4745 4.9808 10.411V10.3061V7.48566C4.9808 7.43442 4.98568 7.38074 4.9808 7.33195C4.9808 7.32707 4.98324 7.31243 4.9808 7.30755C4.99788 7.33683 4.9076 7.47834 4.9564 7.40758C4.92956 7.44906 4.9076 7.46858 4.86613 7.49786C4.93444 7.4515 4.79781 7.53933 4.76609 7.52225C4.81001 7.54421 4.92956 7.52225 4.97592 7.52225H6.29832H9.05046H9.10413C9.36031 7.52225 9.6043 7.29779 9.59212 7.03427C9.57992 6.77077 9.37741 6.54628 9.10413 6.54628H6.59599H5.11012C5.00033 6.54628 4.89054 6.54384 4.78319 6.54628C4.34402 6.55604 4.01953 6.88542 4.00976 7.32216C3.9878 8.25174 4.00976 9.18376 4.00976 10.1109C4.00976 10.6574 4.04392 11.2015 4.21227 11.726C4.47089 12.5336 4.96129 13.2704 5.62492 13.8023C6.33245 14.3684 7.17177 14.7026 8.07694 14.7734C8.56979 14.8124 9.07482 14.7856 9.57012 14.7856H9.73359C9.98978 14.7856 10.2338 14.5611 10.2216 14.2976C10.1996 14.0414 9.99712 13.817 9.72387 13.817L9.7238 13.817Z" fill="white"/>
<path d="M20.8933 7.52959H23.2941H24.7873H25.1825C25.2362 7.52959 25.2581 7.54911 25.1654 7.51984C25.1532 7.51496 25.0678 7.46128 25.1313 7.5052C25.0898 7.47836 25.0703 7.4564 25.041 7.41492C25.0849 7.4808 25.0312 7.39541 25.0264 7.38077C25.0239 7.35881 25.019 7.33685 25.0166 7.31245C25.0142 7.31733 25.0166 7.33441 25.0166 7.33929C24.9947 7.7321 25.0166 8.13467 25.0166 8.52749V10.0865V10.4159C25.0166 10.4745 25.0166 10.5306 25.0117 10.5891C25.0093 10.6404 25.0069 10.6916 25.002 10.7404C24.9995 10.7672 24.9971 10.7965 24.9947 10.8234C24.9922 10.8429 24.9922 10.938 24.9922 10.8575C24.9898 10.777 24.9898 10.877 24.9873 10.8917C24.9849 10.9136 24.98 10.9356 24.9776 10.9575C24.9703 11.0015 24.9605 11.0454 24.9532 11.0869C24.9312 11.1893 24.9068 11.2894 24.8775 11.3894C24.8507 11.4772 24.8214 11.5651 24.7897 11.6529C24.7775 11.687 24.7653 11.7456 24.7409 11.7724C24.8019 11.6992 24.7677 11.7139 24.7458 11.7602C24.7336 11.7846 24.7238 11.809 24.7116 11.8334C24.6287 12.0067 24.5335 12.175 24.4262 12.3361C24.3993 12.3751 24.3725 12.4141 24.3432 12.4532C24.331 12.4702 24.3164 12.4873 24.3042 12.5044C24.2627 12.563 24.3798 12.4117 24.3115 12.4946C24.2505 12.5678 24.1895 12.641 24.1236 12.7118C23.9919 12.8533 23.8504 12.9802 23.704 13.1022C23.6625 13.1363 23.7015 13.1314 23.7284 13.0851C23.7211 13.0948 23.6845 13.1192 23.6772 13.1241C23.643 13.1485 23.6088 13.1729 23.5722 13.1973C23.4893 13.2559 23.4015 13.3095 23.3136 13.3608C23.2355 13.4071 23.155 13.4486 23.0721 13.4901C23.0282 13.512 22.9818 13.5291 22.9403 13.5511C22.8818 13.5804 23.0282 13.5169 22.9672 13.5389C22.9379 13.5511 22.9062 13.5633 22.8769 13.5755C22.6988 13.6438 22.5158 13.6975 22.3279 13.7389C22.2303 13.7609 22.1303 13.7731 22.0327 13.7926C22.0449 13.7902 22.1498 13.778 22.062 13.7877C22.04 13.7902 22.0181 13.7926 21.9961 13.7951C21.94 13.7999 21.8839 13.8048 21.8278 13.8073C21.3642 13.8317 20.8933 13.8121 20.4297 13.8121H20.276C20.0198 13.8121 19.7759 14.0366 19.788 14.3001C19.8002 14.5637 20.0027 14.7881 20.276 14.7881H21.5813C22.3718 14.7881 23.155 14.5905 23.8382 14.1879C24.5628 13.761 25.1752 13.1144 25.5436 12.358C25.8535 11.7213 25.9999 11.0381 25.9999 10.3306V7.46377C25.9999 7.19783 25.9633 6.9441 25.7559 6.75133C25.5729 6.58054 25.3436 6.54882 25.1069 6.54882H23.8358H20.9592H20.9031C20.6469 6.54882 20.4029 6.77328 20.4151 7.03681C20.4175 7.30519 20.62 7.52966 20.8933 7.52966L20.8933 7.52959Z" fill="white"/>
</svg>
