<svg width="61" height="140" viewBox="0 0 61 140" fill="none" xmlns="http://www.w3.org/2000/svg">
<g clip-path="url(#clip0_91_2823)">
<path d="M53.5876 55.9788L38.3933 40.8984L30.8075 48.4386L23.199 40.8984L8.02744 55.9788L15.6132 63.5191L8.02744 71.0593L23.199 86.1397L30.8075 78.5995L38.3933 86.1397L53.5876 71.0593L46.0019 63.5191L53.5876 55.9788Z" fill="white"/>
<path d="M48.9861 134.069H12.1051L6.02278 128.01V18.0728C6.06252 17.6118 6.22799 17.1705 6.50116 16.7971C7.52627 15.043 9.64481 11.6032 10.2371 10.6237C10.4512 10.3698 10.5929 10.0629 10.6471 9.73524V8.91516C10.6471 8.91516 10.6471 8.66457 10.5332 8.41399C10.1688 6.95606 10.1004 6.43212 10.3282 6.13598L10.4649 5.95374H50.5351L50.7173 6.15878C50.9451 6.45492 50.8768 6.97887 50.4895 8.43679C50.4729 8.61104 50.4729 8.78647 50.4895 8.96073V9.75801C50.5347 10.0593 50.6607 10.3427 50.854 10.5781L54.6127 16.7743L54.2483 17.0021L54.6355 16.8426C54.902 17.2048 55.0742 17.6275 55.1367 18.0728V128.032L48.9861 134.069ZM12.5379 133.226H48.7127L54.2027 127.668V18.05C54.1304 17.7644 54.0069 17.4942 53.8382 17.2527L54.1799 16.9793L53.8154 17.2071C52.7675 15.453 50.649 11.9905 50.1023 11.0793C49.7891 10.6964 49.5985 10.228 49.5556 9.73524V8.91516C49.5872 8.66795 49.6405 8.42404 49.715 8.18621C49.715 7.86729 49.9656 7.18388 50.0339 6.79662H11.0344C11.0344 7.18388 11.2622 7.86728 11.3305 8.20898C11.4063 8.43869 11.4597 8.67518 11.49 8.91516V9.73524C11.451 10.2003 11.2768 10.6437 10.9888 11.0109C10.351 12.0588 8.23245 15.5669 7.23012 17.2071C7.03508 17.4589 6.90942 17.7573 6.86564 18.0728V127.668L12.5379 133.226Z" fill="white"/>
<path d="M19.7364 105.731H18.6885V104.819H21.8322V105.731H20.7615V111.289H19.7364V105.731Z" fill="white"/>
<path d="M22.3105 104.819H25.0897V105.731H23.3357V107.439H24.7252V108.373H23.3357V110.355H25.0897V111.289H22.3105V104.819Z" fill="white"/>
<path d="M25.6592 104.819H26.9577L27.9373 108.692H27.96V104.819H28.8485V111.289H27.8006L26.5932 106.551H26.5704V111.289H25.6592V104.819Z" fill="white"/>
<path d="M31.1037 104.819H32.5388L33.1994 109.444H33.2222L33.8601 104.819H35.318V111.289H34.3612V106.391H34.3384L33.5867 111.289H32.7438L31.9921 106.391V111.289H31.1037V104.819Z" fill="white"/>
<path d="M36.0697 104.819H38.8489V105.731H37.0721V107.439H38.4844V108.373H37.0721V110.355H38.8489V111.289H36.0697V104.819Z" fill="white"/>
<path d="M39.4184 104.819H40.6941L41.6964 108.692V104.819H42.6076V111.289H41.5597L40.3524 106.551H40.3296V111.289H39.4184V104.819Z" fill="white"/>
</g>
<defs>
<clipPath id="clip0_91_2823">
<rect width="49" height="128.138" fill="white" transform="translate(6 5.93097)"/>
</clipPath>
</defs>
</svg>
