<svg width="61" height="140" viewBox="0 0 61 140" fill="none" xmlns="http://www.w3.org/2000/svg">
<g clip-path="url(#clip0_91_2849)">
<path d="M53.5876 55.9788L38.3933 40.8984L30.8075 48.4386L23.199 40.8984L8.00464 55.9788L15.6132 63.5191L8.00464 71.0593L23.199 86.1397L30.8075 78.5995L38.3933 86.1397L53.5876 71.0593L46.0019 63.5191L53.5876 55.9788Z" fill="white"/>
<path d="M49.0088 134.092H12.1279L6 128.032V18.1639C6.03595 17.7128 6.19341 17.2798 6.45563 16.911C7.54907 15.0658 9.66768 11.6032 10.2144 10.7376C10.4258 10.4733 10.5668 10.1598 10.6244 9.82636V9.00628C10.6152 8.83935 10.6152 8.67204 10.6244 8.50511C10.2599 7.04719 10.1915 6.52324 10.4193 6.2271L10.556 6.06764H10.8066H50.444L50.6263 6.27266C50.8541 6.5688 50.7629 7.09275 50.3984 8.55067L50.444 9.05184V9.84914C50.4925 10.1563 50.6178 10.4463 50.8084 10.692C51.4235 11.6716 53.5421 15.248 54.5672 16.8882L54.2028 17.0932L54.59 16.911C54.8244 17.2901 54.9649 17.7196 55 18.1639V128.01L49.0088 134.092ZM12.5607 133.226H48.7127L54.2254 127.668V18.1639C54.1526 17.8673 54.021 17.5884 53.8382 17.3438C52.8359 15.6353 50.7174 12.1499 50.1479 11.216C49.8346 10.8331 49.6441 10.3647 49.6012 9.87192V9.05184C49.6315 8.81186 49.6849 8.57537 49.7606 8.34565C49.7606 8.00395 50.0112 7.32055 50.0568 6.93329H11.0573C11.0573 7.32055 11.2851 8.02673 11.3534 8.34565C11.4255 8.57514 11.4713 8.81204 11.4901 9.05184V9.87192C11.4645 10.336 11.2975 10.7811 11.0117 11.1476C10.4194 12.1044 8.30076 15.5669 7.25288 17.3438C7.05784 17.5955 6.93223 17.894 6.88846 18.2094V127.668L12.5607 133.226Z" fill="white"/>
<path d="M19.7364 105.731H18.6885V104.819H21.8321V105.731H20.7615V111.289H19.7364V105.731Z" fill="white"/>
<path d="M22.3105 104.819H25.0897V105.731H23.3357V107.439H24.7252V108.373H23.3357V110.355H25.0897V111.289H22.3105V104.819Z" fill="white"/>
<path d="M25.6592 104.819H26.9349L27.9372 108.692H27.96V104.819H28.8484V111.289H27.8005L26.5932 106.551H26.5704V111.289H25.6592V104.819Z" fill="white"/>
<path d="M31.1036 104.819H32.5388L33.1994 109.444H33.2222L33.86 104.819H35.318V111.289H34.3612V106.391H34.3384L33.5867 111.289H32.7438L31.9921 106.391V111.289H31.1036V104.819Z" fill="white"/>
<path d="M36.0697 104.819H38.8489V105.731H37.072V107.439H38.4844V108.373H37.072V110.355H38.8489V111.289H36.0697V104.819Z" fill="white"/>
<path d="M39.4185 104.819H40.6941L41.6965 108.692V104.819H42.6077V111.289H41.5598L40.3524 106.551H40.3297V111.289H39.4185V104.819Z" fill="white"/>
</g>
<defs>
<clipPath id="clip0_91_2849">
<rect width="49" height="128.138" fill="white" transform="translate(6 5.93097)"/>
</clipPath>
</defs>
</svg>
