<svg width="160" height="66" viewBox="0 0 160 66" fill="none" xmlns="http://www.w3.org/2000/svg">
<g clip-path="url(#clip0_137_1117)">
<path d="M7.11077 6.22144H0V0H21.0084V6.22144H13.913V43.519H7.11077V6.22144Z" fill="white"/>
<path d="M24.2939 0H42.8344V6.22144H31.0808V17.7179H40.4127V23.9394H31.0808V37.2976H42.8344V43.519H24.2939V0Z" fill="white"/>
<path d="M46.7212 0H55.251L61.8682 26.0494H61.9916V0H68.0381V43.519H61.0661L52.9065 11.7447H52.7831V43.519H46.7212V0Z" fill="white"/>
<path d="M83 0H92.7021L97.021 31.1382H97.1444L101.479 0H111.181V43.519H104.749V10.5656H104.625L99.6895 43.519H93.9978L89.0465 10.5656H88.9385V43.519H83V0Z" fill="white"/>
<path d="M116.24 0H134.796V6.22144H123.043V17.7179H132.374V23.9394H123.043V37.2976H134.796V43.519H116.24V0Z" fill="white"/>
<path d="M138.683 0H147.213L153.815 26.0494H153.954V0H160V43.519H153.013L144.868 11.7447H144.745V43.519H138.683V0Z" fill="white"/>
<path d="M46.7674 60.2128C47.2432 60.4562 47.6407 60.8303 47.9137 61.2916C48.1867 61.753 48.3241 62.2827 48.3099 62.8194C48.3204 63.2475 48.239 63.6728 48.0713 64.0664C47.9036 64.4599 47.6535 64.8125 47.3381 65.1C46.6992 65.6997 45.8517 66.023 44.9781 66H40.2119V54.8292H44.608C45.4643 54.8094 46.2945 55.1268 46.9217 55.7137C47.2275 55.994 47.4699 56.3371 47.6322 56.7199C47.7946 57.1027 47.8731 57.5162 47.8625 57.9322C47.8786 58.3766 47.7841 58.8182 47.5874 59.2165C47.3908 59.6148 47.0983 59.9572 46.7366 60.2128M44.608 56.6135H42.0166V59.5458H44.608C44.7982 59.5479 44.987 59.5115 45.163 59.4388C45.339 59.3661 45.4987 59.2584 45.6325 59.1223C45.7663 58.9863 45.8716 58.8246 45.942 58.6468C46.0125 58.469 46.0466 58.2787 46.0424 58.0873C46.0467 57.8924 46.012 57.6987 45.9404 57.5174C45.8689 57.3362 45.762 57.1713 45.626 57.0324C45.4936 56.8965 45.335 56.7893 45.16 56.7173C44.9849 56.6452 44.7971 56.6099 44.608 56.6135ZM44.9627 64.3709C45.1613 64.3732 45.3582 64.3345 45.5413 64.2571C45.7244 64.1797 45.8897 64.0652 46.027 63.9209C46.1691 63.7728 46.2804 63.5979 46.3545 63.4061C46.4287 63.2144 46.4642 63.0096 46.4589 62.8039C46.4654 62.3937 46.3101 61.9977 46.027 61.7024C45.8923 61.5538 45.7277 61.4355 45.5443 61.3552C45.3609 61.275 45.1627 61.2346 44.9627 61.2369H42.0166V64.3398L44.9627 64.3709Z" fill="white"/>
<path d="M58.629 66L56.269 61.9352H54.1096V66H52.3203V54.8292H56.7626C57.2326 54.8186 57.6998 54.9053 58.135 55.0842C58.5702 55.263 58.9641 55.5302 59.2922 55.8688C59.6302 56.1986 59.8976 56.5945 60.078 57.032C60.2584 57.4696 60.3479 57.9396 60.3412 58.4133C60.3459 59.1189 60.13 59.8081 59.7241 60.3837C59.3455 60.9511 58.809 61.3935 58.1817 61.6558L60.6959 66H58.629ZM54.1096 56.5514V60.2905H56.7317C56.964 60.2933 57.1942 60.2464 57.4069 60.1528C57.6197 60.0592 57.8102 59.921 57.9657 59.7475C58.2942 59.3847 58.4761 58.9117 58.4761 58.421C58.4761 57.9304 58.2942 57.4574 57.9657 57.0945C57.8102 56.9211 57.6197 56.7829 57.4069 56.6892C57.1942 56.5956 56.964 56.5485 56.7317 56.5514H54.1096Z" fill="white"/>
<path d="M66.2335 64.2468H71.154V66H64.3979V54.8293H71.0768V56.5825H66.2335V59.4838H70.6758V61.2214H66.2335V64.2468Z" fill="white"/>
<path d="M77.5553 66L74.4087 54.8293H76.3213L78.6659 63.5642L81.1801 54.8293H82.8614L85.3756 63.5642L87.7047 54.8293H89.6328L86.4862 66H84.373L82.0285 57.8392L79.6685 66H77.5553Z" fill="white"/>
<path d="M95.2625 64.2468H100.183V66H93.4424V54.8293H100.106V56.5825H95.2625V59.4838H99.7048V61.2214H95.2625V64.2468Z" fill="white"/>
<path d="M110.564 66.0001L108.219 61.9352H106.06V66.0001H104.24V54.8293H108.682C109.326 54.8268 109.959 55.0006 110.512 55.3321C111.065 55.6637 111.518 56.1404 111.822 56.7113C112.127 57.2821 112.271 57.9254 112.24 58.5724C112.208 59.2194 112.002 59.8456 111.644 60.3837C111.264 60.9499 110.727 61.392 110.101 61.6559L112.631 66.0001H110.564ZM106.06 56.5514V60.2906H108.682C108.914 60.2914 109.144 60.2435 109.356 60.15C109.569 60.0565 109.759 59.9195 109.916 59.7476C110.244 59.3848 110.426 58.9118 110.426 58.4211C110.426 57.9304 110.244 57.4574 109.916 57.0946C109.759 56.9227 109.569 56.7855 109.356 56.692C109.144 56.5985 108.914 56.5506 108.682 56.5514H106.06Z" fill="white"/>
<path d="M124.569 54.8293L120.698 61.5628V66H118.878V61.5628L114.991 54.8293H117.073L119.788 59.7786L122.487 54.8293H124.569Z" fill="white"/>
</g>
<defs>
<clipPath id="clip0_137_1117">
<rect width="160" height="66" fill="white"/>
</clipPath>
</defs>
</svg>
